<?xml version="1.0" encoding="UTF-8"?>
<svg id="Capa_2" xmlns="http://www.w3.org/2000/svg" xmlns:xlink="http://www.w3.org/1999/xlink" viewBox="0 0 629.42 394.75">
  <defs>
    <style>
      .cls-1 {
        letter-spacing: 0em;
      }

      .cls-2 {
        letter-spacing: 0em;
      }

      .cls-3 {
        font-size: 48.55px;
      }

      .cls-3, .cls-4 {
        font-family: BarlowSemiCondensed-SemiBold, 'Barlow Semi Condensed';
        font-weight: 600;
      }

      .cls-3, .cls-4, .cls-5, .cls-6 {
        fill: #453a36;
      }

      .cls-7 {
        letter-spacing: 0em;
      }

      .cls-8 {
        letter-spacing: -.02em;
      }

      .cls-4 {
        font-size: 38.84px;
      }

      .cls-9 {
        stroke-width: 2.13px;
      }

      .cls-9, .cls-10 {
        fill: none;
        stroke: #453a36;
        stroke-miterlimit: 10;
      }

      .cls-10 {
        stroke-width: 2.83px;
      }

      .cls-5, .cls-11 {
        font-family: BarlowSemiCondensed-Regular, 'Barlow Semi Condensed';
        font-size: 37.38px;
      }

      .cls-6 {
        font-family: BarlowSemiCondensed-Light, 'Barlow Semi Condensed';
        font-size: 30.92px;
        font-weight: 300;
      }

      .cls-11 {
        fill: #fff;
      }

      .cls-12 {
        fill: #90414b;
      }

      .cls-13 {
        fill: #d5d3d2;
      }
    </style>
  </defs>
  <g id="INFO">
    <line class="cls-9" x1="36.69" y1="248.5" x2="628.48" y2="248.5"/>
    <line class="cls-9" x1="36.69" y1="199.97" x2="628.48" y2="199.97"/>
    <line class="cls-9" x1="36.69" y1="151.44" x2="628.48" y2="151.44"/>
    <line class="cls-9" x1="36.69" y1="102.91" x2="628.48" y2="102.91"/>
    <line class="cls-9" x1="36.69" y1="54.38" x2="628.48" y2="54.38"/>
    <rect class="cls-13" x="2.83" y="346.18" width="360.35" height="48.57"/>
    <rect class="cls-12" x="378.47" y="345.55" width="250.95" height="48.57"/>
    <rect class="cls-12" x="486.22" y="328.53" width="35.07" height="36.96" transform="translate(392.91 -254.57) rotate(45)"/>
    <rect class="cls-13" x="175.43" y="328.53" width="35.07" height="36.96" transform="translate(301.89 -34.81) rotate(45)"/>
    <text class="cls-5" transform="translate(78.03 381.92)"><tspan x="0" y="0">Iglesia </tspan><tspan class="cls-2" x="101.01" y="0">S</tspan><tspan x="119.88" y="0">an </tspan><tspan class="cls-1" x="162.61" y="0">P</tspan><tspan x="181.6" y="0">ed</tspan><tspan class="cls-7" x="217.23" y="0">r</tspan><tspan x="229.3" y="0">o </tspan></text>
    <text class="cls-11" transform="translate(381.77 382.39)"><tspan x="0" y="0">Iglesia Chiu Chiu </tspan></text>
    <text class="cls-3" transform="translate(469.33 41.27)"><tspan x="0" y="0">9 m</tspan></text>
    <text class="cls-4" transform="translate(150.89 43.17)"><tspan x="0" y="0">14,</tspan><tspan class="cls-8" x="40.9" y="0">3</tspan><tspan x="59.58" y="0">1 m</tspan></text>
    <g>
      <text class="cls-6" transform="translate(8.35 305.56)"><tspan x="0" y="0">0</tspan></text>
      <text class="cls-6" transform="translate(9.12 257.04)"><tspan x="0" y="0">3</tspan></text>
      <text class="cls-6" transform="translate(9.21 208.51)"><tspan x="0" y="0">6</tspan></text>
      <text class="cls-6" transform="translate(9.09 159.98)"><tspan x="0" y="0">9</tspan></text>
      <text class="cls-6" transform="translate(0 111.45)"><tspan x="0" y="0">12</tspan></text>
      <text class="cls-6" transform="translate(.22 62.92)"><tspan x="0" y="0">15</tspan></text>
    </g>
    <line class="cls-10" x1="36.69" y1="297.03" x2="628.48" y2="297.03"/>
    <image width="539" height="236" transform="translate(47.15 62.56)" href="grafico_iglesias.png"/>
  </g>
</svg>