<?xml version="1.0" encoding="UTF-8"?>
<svg id="Capa_2" xmlns="http://www.w3.org/2000/svg" viewBox="0 0 158.4 140.29">
  <defs>
    <style>
      .cls-1, .cls-2, .cls-3, .cls-4, .cls-5 {
        fill-rule: evenodd;
      }

      .cls-1, .cls-6 {
        fill: #c7c4c2;
      }

      .cls-2, .cls-7 {
        fill: #f6f5f5;
      }

      .cls-3, .cls-8 {
        fill: #ecebea;
      }

      .cls-9 {
        stroke: #e3e2e1;
        stroke-miterlimit: 22.93;
        stroke-width: .57px;
      }

      .cls-9, .cls-4, .cls-10 {
        fill: #e3e2e1;
      }

      .cls-5 {
        fill: #453a36;
      }
    </style>
  </defs>
  <g id="INFO">
    <g>
      <g>
        <rect class="cls-7" x=".98" y="92.54" width="53.24" height="47.29"/>
        <rect class="cls-8" x="107.89" y="92.54" width="48.36" height="47.29"/>
        <polygon class="cls-4" points="59.58 90.54 54.27 92.51 54.22 139.83 59.2 139.74 59.58 90.54"/>
        <polygon class="cls-4" points="102.53 90.55 107.93 92.43 107.89 139.83 102.01 139.74 102.53 90.55"/>
        <rect class="cls-7" x="4.95" y="59.9" width="146.49" height="29.6"/>
        <polygon class="cls-4" points="44.94 55.47 110.63 55.47 110.81 50.01 75.81 33.48 44.94 47.2 44.94 55.47"/>
        <polygon class="cls-3" points="45.03 55.47 110.72 55.47 110.54 51.83 75.05 36.46 45.03 49.85 45.03 55.47"/>
        <path class="cls-1" d="M109.58,89.95c-2.58-14.92-14.09-26.37-27.69-26.37s-27.63,7.44-27.63,26.45l5.33-.19c1.81-10.12,9.54-21.61,20.81-21.61,12.12,0,19.63,11.45,21.55,21.58l7.63.15Z"/>
        <path class="cls-4" d="M102.91,139.74h-43.72l.28-54.03c1.86-10.12,9.77-17.49,21.31-17.49,12.42,0,20.7,7.32,22.67,17.45l-.55,54.06Z"/>
        <rect class="cls-6" x="77.05" y="69.29" width="8.85" height="10.82"/>
        <rect class="cls-7" x="77.75" y="70.44" width="7.44" height="8.52"/>
        <rect class="cls-6" x="80.78" y="70.47" width="1.4" height="8.46"/>
        <rect class="cls-6" x="77.24" y="74" width="8.46" height="1.4"/>
        <path class="cls-1" d="M91.56,128.33v-24.09c0-5.55-4.54-10.09-10.09-10.09h0c-5.55,0-10.09,4.54-10.09,10.09v24.09h20.17Z"/>
        <rect class="cls-10" x="107.85" y="87.97" width="50.55" height="4.57"/>
        <rect class="cls-9" x=".32" y="88.08" width="53.94" height="4.46"/>
        <polygon class="cls-2" points="109.67 55.84 137.65 55.84 134.96 25.42 112.17 25.38 109.67 55.84"/>
        <rect class="cls-7" x="110.78" y="23.44" width="25.75" height="1.98"/>
        <rect class="cls-10" x="115.39" y="16.13" width="16.53" height="1.16"/>
        <rect class="cls-7" x="115.39" y="17.29" width="16.53" height="4.46"/>
        <rect class="cls-7" x="122.83" width="1.65" height="16.2"/>
        <rect class="cls-7" x="117.54" y="5.05" width="12.24" height="1.65"/>
        <path class="cls-1" d="M128.49,50.1v-14.96c0-2.66-2.18-4.84-4.84-4.84h0c-2.66,0-4.84,2.18-4.84,4.84v14.96h9.67Z"/>
        <path class="cls-4" d="M118.95,34.04h9.42c.07.33.11.66.13.99h-9.67c.01-.36.06-.67.12-.99Z"/>
        <path class="cls-4" d="M120.46,44.31c-.74-2.01,1.08-2.55,1.08-4.12v-1.55c0-1.15,1.11-2.09,2.19-2.09h0c1.08,0,1.96.94,1.96,2.09v1.55c0,1.03,1.94,3.01,1.31,4.1-.8.83-1.96,1.06-3.07,1.05-1.74-.01-3.38-.66-3.47-1.03Z"/>
        <path class="cls-1" d="M123.7,45.31c1.8,0,3.27-.62,3.27-1.39s-1.47-1.39-3.27-1.39-3.27.62-3.27,1.39,1.47,1.39,3.27,1.39Z"/>
        <rect class="cls-10" x="122.75" y="35" width="1.9" height="1.74"/>
        <rect class="cls-10" x="110.39" y="21.69" width="26.54" height="1.98"/>
        <rect class="cls-10" x="132.9" y="20.31" width="2.15" height="1.74"/>
        <path class="cls-4" d="M134.03,20.8c.44,0,.81-.36.81-.81s-.36-.81-.81-.81-.81.36-.81.81.36.81.81.81Z"/>
        <rect class="cls-10" x="112.27" y="20.1" width="2.15" height="1.74"/>
        <path class="cls-4" d="M113.41,20.6c.44,0,.81-.36.81-.81s-.36-.81-.81-.81-.81.36-.81.81.36.81.81.81Z"/>
        <polygon class="cls-2" points="17.6 55.84 45.59 55.84 42.9 25.42 20.11 25.38 17.6 55.84"/>
        <rect class="cls-7" x="18.72" y="23.44" width="25.75" height="1.98"/>
        <rect class="cls-10" x="23.33" y="16.13" width="16.53" height="1.16"/>
        <rect class="cls-7" x="23.33" y="17.29" width="16.53" height="4.46"/>
        <rect class="cls-7" x="30.77" width="1.65" height="16.2"/>
        <rect class="cls-7" x="25.48" y="5.05" width="12.24" height="1.65"/>
        <path class="cls-1" d="M36.43,50.1v-14.96c0-2.66-2.18-4.84-4.84-4.84h0c-2.66,0-4.84,2.18-4.84,4.84v14.96h9.67Z"/>
        <path class="cls-4" d="M26.88,34.04h9.42c.07.33.11.66.13.99h-9.67c.01-.36.06-.67.12-.99Z"/>
        <path class="cls-4" d="M28.39,44.31c-.74-2.01,1.08-2.55,1.08-4.12v-1.55c0-1.15,1.11-2.09,2.19-2.09h0c1.08,0,1.96.94,1.96,2.09v1.55c0,1.03,1.94,3.01,1.31,4.1-.8.83-1.96,1.06-3.07,1.05-1.74-.01-3.38-.66-3.47-1.03Z"/>
        <path class="cls-1" d="M31.64,45.31c1.8,0,3.27-.62,3.27-1.39s-1.47-1.39-3.27-1.39-3.27.62-3.27,1.39,1.47,1.39,3.27,1.39Z"/>
        <rect class="cls-10" x="30.69" y="35" width="1.9" height="1.74"/>
        <rect class="cls-10" x="18.33" y="21.69" width="26.54" height="1.98"/>
        <rect class="cls-10" x="40.84" y="20.31" width="2.15" height="1.74"/>
        <path class="cls-4" d="M41.97,20.8c.44,0,.81-.36.81-.81s-.36-.81-.81-.81-.81.36-.81.81.36.81.81.81Z"/>
        <rect class="cls-10" x="20.21" y="20.1" width="2.15" height="1.74"/>
        <path class="cls-4" d="M21.35,20.6c.44,0,.81-.36.81-.81s-.36-.81-.81-.81-.81.36-.81.81.36.81.81.81Z"/>
        <rect class="cls-10" x="1.49" y="57.83" width="152.78" height="2.03"/>
        <rect class="cls-10" y="55.23" width="155.26" height="2.89"/>
        <polygon class="cls-4" points="102.52 90.54 107.85 92.54 107.85 87.84 102.52 85.87 102.52 90.54"/>
        <polygon class="cls-4" points="59.6 90.54 54.27 92.54 54.23 87.06 59.6 85.87 59.6 90.54"/>
      </g>
      <path class="cls-5" d="M24.57,137.85s-.08-.05-.11-.07c-.14-.08-.16-.17-.08-.31.75-1.31,1.5-2.62,2.25-3.93.19-.33.41-.65.61-.98.08-.14.13-.29.21-.44.03-.06.07-.13.13-.16.22-.13.32-.33.4-.55.17-.51.33-1.02.5-1.53.06-.19.15-.38.23-.57-.15,0-.3-.01-.44,0-.2.02-.33-.06-.4-.23-.06-.14-.11-.29-.13-.44-.07-.5-.18-.99-.33-1.48-.08-.26-.07-.56-.03-.83.14-.99.03-1.95-.25-2.91-.04-.12-.06-.24-.09-.37-.07-.25-.06-.5-.01-.76.07-.44.09-.89.13-1.34.07-.88.3-1.72.53-2.57.09-.35.16-.7.4-.98.11-.13.25-.25.37-.37.21-.21.43-.41.64-.62.1-.09.2-.18.3-.27.02-.02.04-.04.05-.07.09-.3.19-.59.27-.89.02-.07-.02-.16-.05-.23-.1-.22-.24-.42-.32-.65-.23-.63-.16-1.25.28-1.76.21-.25.53-.44.83-.57.2-.08.47-.03.7.01.48.09.91.32,1.29.63.1.08.18.19.24.31.07.14,0,.2-.16.17.02.16.03.31.05.47.03.19.02.37-.08.54-.03.05-.02.14,0,.2.05.15.12.28.17.43.07.2.07.21-.14.25-.04,0-.08.02-.14.03-.04.26-.1.52-.13.79-.02.17-.07.24-.25.27-.17.02-.34.03-.51.06-.24.04-.28.09-.27.33,0,.01,0,.02,0,.03,0,.28.07.5.36.63.52.23.69.7.79,1.2.1.45.15.92.24,1.37.04.19.1.38.16.57.11.33.17.67.15,1.02-.03.56.1,1.09.32,1.61.33.78.64,1.58.95,2.36.03.09.06.18.1.26.06.15.03.28-.1.38-.07.05-.09.1-.04.18.03.04.04.09.06.13.35.6.32,1.22.11,1.86-.02.05-.02.1-.06.13-.06.06-.14.1-.21.15-.04-.06-.09-.12-.11-.18-.03-.17-.03-.35-.06-.52-.06-.3-.21-.55-.47-.72-.27-.17-.42-.43-.57-.7-.06-.1-.11-.21-.17-.33-.18.4-.24.81-.29,1.22-.03.22-.03.45-.05.67,0,.05,0,.12-.04.14-.14.07-.08.17-.05.27.2.74.36,1.5.62,2.23.22.61.27,1.24.41,1.85.21.89.49,1.76.72,2.64.19.71.34,1.44.53,2.15.08.33.21.64.3.97.06.25.03.28-.22.36-.06.02-.12.03-.21.05.09.08.17.14.25.2.64.46,1.36.78,2.09,1.08.08.03.15.09.2.16.14.22.06.39-.2.39-.4,0-.8-.06-1.2-.07-.42-.02-.84-.03-1.26-.03-.41,0-.81,0-1.22,0-.15,0-.22-.08-.23-.2-.04-.36-.07-.73-.09-1.1,0-.13.02-.24-.15-.32-.08-.04-.13-.19-.14-.3-.11-1.11-.54-2.14-.77-3.22-.05-.22-.07-.44-.14-.66-.05-.17-.15-.32-.23-.49-.08-.17-.18-.33-.22-.5-.06-.28-.21-.51-.38-.74-.95,1.5-2.08,2.86-3.18,4.26-.28.35-.52.74-.78,1.1-.11.15-.23.29-.36.43-.09.1-.2.15-.34.06-.02-.02-.06-.02-.11-.03,0,.18.08.32.19.45.27.28.59.47.94.65.13.07.27.13.39.22.08.06.15.14.19.22.07.17,0,.28-.19.28-.33,0-.67.03-1-.02-.28-.04-.56-.15-.81-.27-.23-.11-.46-.18-.71-.21-.3-.04-.57-.14-.81-.32-.1-.08-.16-.17-.1-.3.15-.37.3-.74.45-1.11.03-.07.06-.13.1-.2Z"/>
    </g>
  </g>
</svg>