<?xml version="1.0" encoding="UTF-8"?>
<svg id="Capa_2" xmlns="http://www.w3.org/2000/svg" viewBox="0 0 158.4 139.83">
  <defs>
    <style>
      .cls-1, .cls-2, .cls-3, .cls-4 {
        fill-rule: evenodd;
      }

      .cls-1, .cls-5 {
        fill: #c7c4c2;
      }

      .cls-2, .cls-6 {
        fill: #f6f5f5;
      }

      .cls-3, .cls-7 {
        fill: #ecebea;
      }

      .cls-8 {
        stroke: #e3e2e1;
        stroke-miterlimit: 22.93;
        stroke-width: .57px;
      }

      .cls-8, .cls-4, .cls-9 {
        fill: #e3e2e1;
      }
    </style>
  </defs>
  <g id="INFO">
    <g>
      <rect class="cls-6" x=".98" y="92.54" width="53.24" height="47.29"/>
      <rect class="cls-7" x="107.89" y="92.54" width="48.36" height="47.29"/>
      <polygon class="cls-4" points="59.58 90.54 54.27 92.51 54.22 139.83 59.2 139.74 59.58 90.54"/>
      <polygon class="cls-4" points="102.53 90.55 107.93 92.43 107.89 139.83 102.01 139.74 102.53 90.55"/>
      <rect class="cls-6" x="4.95" y="59.9" width="146.49" height="29.6"/>
      <polygon class="cls-4" points="44.94 55.47 110.63 55.47 110.81 50.01 75.81 33.48 44.94 47.2 44.94 55.47"/>
      <polygon class="cls-3" points="45.03 55.47 110.72 55.47 110.54 51.83 75.05 36.46 45.03 49.85 45.03 55.47"/>
      <path class="cls-1" d="M109.58,89.95c-2.58-14.92-14.09-26.37-27.69-26.37s-27.63,7.44-27.63,26.45l5.33-.19c1.81-10.12,9.54-21.61,20.81-21.61,12.12,0,19.63,11.45,21.55,21.58l7.63.15Z"/>
      <path class="cls-4" d="M102.91,139.74h-43.72l.28-54.03c1.86-10.12,9.77-17.49,21.31-17.49,12.42,0,20.7,7.32,22.67,17.45l-.55,54.06Z"/>
      <rect class="cls-5" x="77.05" y="69.29" width="8.85" height="10.82"/>
      <rect class="cls-6" x="77.75" y="70.44" width="7.44" height="8.52"/>
      <rect class="cls-5" x="80.78" y="70.47" width="1.4" height="8.46"/>
      <rect class="cls-5" x="77.24" y="74" width="8.46" height="1.4"/>
      <path class="cls-1" d="M91.56,128.33v-24.09c0-5.55-4.54-10.09-10.09-10.09h0c-5.55,0-10.09,4.54-10.09,10.09v24.09h20.17Z"/>
      <rect class="cls-9" x="107.85" y="87.97" width="50.55" height="4.57"/>
      <rect class="cls-8" x=".32" y="88.08" width="53.94" height="4.46"/>
      <polygon class="cls-2" points="109.67 55.84 137.65 55.84 134.96 25.42 112.17 25.38 109.67 55.84"/>
      <rect class="cls-6" x="110.78" y="23.44" width="25.75" height="1.98"/>
      <rect class="cls-9" x="115.39" y="16.13" width="16.53" height="1.16"/>
      <rect class="cls-6" x="115.39" y="17.29" width="16.53" height="4.46"/>
      <rect class="cls-6" x="122.83" width="1.65" height="16.2"/>
      <rect class="cls-6" x="117.54" y="5.05" width="12.24" height="1.65"/>
      <path class="cls-1" d="M128.49,50.1v-14.96c0-2.66-2.18-4.84-4.84-4.84h0c-2.66,0-4.84,2.18-4.84,4.84v14.96h9.67Z"/>
      <path class="cls-4" d="M118.95,34.04h9.42c.07.33.11.66.13.99h-9.67c.01-.36.06-.67.12-.99Z"/>
      <path class="cls-4" d="M120.46,44.31c-.74-2.01,1.08-2.55,1.08-4.12v-1.55c0-1.15,1.11-2.09,2.19-2.09h0c1.08,0,1.96.94,1.96,2.09v1.55c0,1.03,1.94,3.01,1.31,4.1-.8.83-1.96,1.06-3.07,1.05-1.74-.01-3.38-.66-3.47-1.03Z"/>
      <path class="cls-1" d="M123.7,45.31c1.8,0,3.27-.62,3.27-1.39s-1.47-1.39-3.27-1.39-3.27.62-3.27,1.39,1.47,1.39,3.27,1.39Z"/>
      <rect class="cls-9" x="122.75" y="35" width="1.9" height="1.74"/>
      <rect class="cls-9" x="110.39" y="21.69" width="26.54" height="1.98"/>
      <rect class="cls-9" x="132.9" y="20.31" width="2.15" height="1.74"/>
      <path class="cls-4" d="M134.03,20.8c.44,0,.81-.36.81-.81s-.36-.81-.81-.81-.81.36-.81.81.36.81.81.81Z"/>
      <rect class="cls-9" x="112.27" y="20.1" width="2.15" height="1.74"/>
      <path class="cls-4" d="M113.41,20.6c.44,0,.81-.36.81-.81s-.36-.81-.81-.81-.81.36-.81.81.36.81.81.81Z"/>
      <polygon class="cls-2" points="17.6 55.84 45.59 55.84 42.9 25.42 20.11 25.38 17.6 55.84"/>
      <rect class="cls-6" x="18.72" y="23.44" width="25.75" height="1.98"/>
      <rect class="cls-9" x="23.33" y="16.13" width="16.53" height="1.16"/>
      <rect class="cls-6" x="23.33" y="17.29" width="16.53" height="4.46"/>
      <rect class="cls-6" x="30.77" width="1.65" height="16.2"/>
      <rect class="cls-6" x="25.48" y="5.05" width="12.24" height="1.65"/>
      <path class="cls-1" d="M36.43,50.1v-14.96c0-2.66-2.18-4.84-4.84-4.84h0c-2.66,0-4.84,2.18-4.84,4.84v14.96h9.67Z"/>
      <path class="cls-4" d="M26.88,34.04h9.42c.07.33.11.66.13.99h-9.67c.01-.36.06-.67.12-.99Z"/>
      <path class="cls-4" d="M28.39,44.31c-.74-2.01,1.08-2.55,1.08-4.12v-1.55c0-1.15,1.11-2.09,2.19-2.09h0c1.08,0,1.96.94,1.96,2.09v1.55c0,1.03,1.94,3.01,1.31,4.1-.8.83-1.96,1.06-3.07,1.05-1.74-.01-3.38-.66-3.47-1.03Z"/>
      <path class="cls-1" d="M31.64,45.31c1.8,0,3.27-.62,3.27-1.39s-1.47-1.39-3.27-1.39-3.27.62-3.27,1.39,1.47,1.39,3.27,1.39Z"/>
      <rect class="cls-9" x="30.69" y="35" width="1.9" height="1.74"/>
      <rect class="cls-9" x="18.33" y="21.69" width="26.54" height="1.98"/>
      <rect class="cls-9" x="40.84" y="20.31" width="2.15" height="1.74"/>
      <path class="cls-4" d="M41.97,20.8c.44,0,.81-.36.81-.81s-.36-.81-.81-.81-.81.36-.81.81.36.81.81.81Z"/>
      <rect class="cls-9" x="20.21" y="20.1" width="2.15" height="1.74"/>
      <path class="cls-4" d="M21.35,20.6c.44,0,.81-.36.81-.81s-.36-.81-.81-.81-.81.36-.81.81.36.81.81.81Z"/>
      <rect class="cls-9" x="1.49" y="57.83" width="152.78" height="2.03"/>
      <rect class="cls-9" y="55.23" width="155.26" height="2.89"/>
      <polygon class="cls-4" points="102.52 90.54 107.85 92.54 107.85 87.84 102.52 85.87 102.52 90.54"/>
      <polygon class="cls-4" points="59.6 90.54 54.27 92.54 54.23 87.06 59.6 85.87 59.6 90.54"/>
    </g>
  </g>
</svg>